Coordinates
nRows=5
nColumns=38

# SIMM Motion File Header:
name Coordinates
datacolumns 38
datarows 5
otherdata 1
range 1.78099999999999990000 1.78499999999999990000

Units are S.I. units (second, meters, Newtons, ...)
Angles are in degrees.

endheader
time	pelvis_tilt	pelvis_list	pelvis_rotation	pelvis_tx	pelvis_ty	pelvis_tz	hip_flexion_r	hip_adduction_r	hip_rotation_r	knee_angle_r	ankle_angle_r	subtalar_angle_r	mtp_angle_r	hip_flexion_l	hip_adduction_l	hip_rotation_l	knee_angle_l	ankle_angle_l	subtalar_angle_l	mtp_angle_l	lumbar_extension	lumbar_bending	lumbar_rotation	arm_flex_r	arm_add_r	arm_rot_r	elbow_flex_r	pro_sup_r	wrist_flex_r	wrist_dev_r	arm_flex_l	arm_add_l	arm_rot_l	elbow_flex_l	pro_sup_l	wrist_flex_l	wrist_dev_l
      1.78099999999999990000	     -0.12183247587545726000	      1.96741949608094770000	      0.69994432116982652000	      0.83484268650205296000	      1.02493826897478100000	     -0.34278858104287491000	     19.84485427459229400000	      1.33595669055912000000	      0.74121347363838663000	     -9.39606114634122670000	      3.94727829214512750000	      0.00000000000000000000	      0.00000000000000000000	    -13.99257703962225800000	      5.93582314190063710000	      5.35822471492719640000	    -41.98105343973971800000	    -27.00075363715152900000	      0.00000000000000000000	      0.00000000000000000000	    -11.48536366825353200000	     -3.98804786737907560000	    -10.73277029515153000000	    -34.31708820772538400000	    -11.34627070801755100000	    -16.33582959925179500000	     92.46445296775083000000	     71.63141268040607200000	      0.00000000000000000000	      0.00000000000000000000	     -3.15625240502747890000	    -24.61132556471026700000	      8.36399635379242670000	    109.95872005313602000000	     98.23254021839771600000	      0.00000000000000000000	      0.00000000000000000000
      1.78199999999999980000	     -0.00159549346188700230	      1.95572060929537920000	      0.73773911998784458000	      0.83469349386233516000	      1.02464818240218050000	     -0.34275884752894920000	     19.71663099965487100000	      1.36076799197412530000	      0.70271536195067219000	     -9.58867188351408470000	      3.94715533867646770000	      0.00000000000000000483	     -0.00000000000000000589	    -13.90829105754666600000	      5.94533628355423450000	      5.41525452640514350000	    -42.55486616276151300000	    -26.94724481180025700000	     -0.00000000000000000030	      0.00000000000000000073	    -11.64855208470040200000	     -3.94761023553193140000	    -10.69775995633853700000	    -34.22142891553826900000	    -11.36456825392943800000	    -16.36533019688113200000	     92.50415745338867200000	     71.62290288022605000000	     -0.00000000000000000033	     -0.00000000000000000053	     -3.15579995793337580000	    -24.60895371779200100000	      8.41812751365227460000	    109.89756967497796000000	     98.13756051582974700000	     -0.00000000000000000041	      0.00000000000000000033
      1.78299999999999990000	      0.11909492585606533000	      1.94356636036970350000	      0.77486568883382745000	      0.83454353629818001000	      1.02434937947797770000	     -0.34272831522723790000	     19.58770425965217800000	      1.38652638977718360000	      0.66804965151739737000	     -9.78721951101327470000	      3.96049721159719060000	      0.00000000000000000623	     -0.00000000000000000472	    -13.82306885445264300000	      5.95405119289542740000	      5.46821939664929070000	    -43.12910878917716000000	    -26.88958948250117200000	      0.00000000000000000051	     -0.00000000000000000269	    -11.81215803383093100000	     -3.90658220578764450000	    -10.66137754099674100000	    -34.12516042500335100000	    -11.38496249369351100000	    -16.39444381989619300000	     92.54410329338084300000	     71.61458383261616200000	      0.00000000000000000194	     -0.00000000000000000508	     -3.15649745280993300000	    -24.60546306176351200000	      8.47052065243334160000	    109.83418453200545000000	     98.04110189929510000000	     -0.00000000000000000022	      0.00000000000000000263
      1.78399999999999980000	      0.23999620322586526000	      1.93054685967523730000	      0.81102696432796617000	      0.83439223728658851000	      1.02404216760316990000	     -0.34269672327587647000	     19.45867737403063900000	      1.41351409421123190000	      0.63578524664877656000	     -9.99197490575027380000	      3.96395380222684770000	      0.00000000000000000064	     -0.00000000000000000622	    -13.73658252692064800000	      5.96151263481900970000	      5.51658803610386710000	    -43.70376060259698600000	    -26.82786124109095700000	      0.00000000000000000315	     -0.00000000000000000632	    -11.97594004915419000000	     -3.86453616920979700000	    -10.62326167293345800000	    -34.02814401351053400000	    -11.40760057088654200000	    -16.42317955177684400000	     92.58412371242161500000	     71.60641433028710900000	      0.00000000000000000507	     -0.00000000000000001536	     -3.15829533901938580000	    -24.60067080319268100000	      8.52115390975362890000	    109.76833099875341000000	     97.94351957799315800000	     -0.00000000000000000034	      0.00000000000000000484
      1.78499999999999990000	      0.36091003382965564000	      1.91678209619238030000	      0.84646368180811260000	      0.83423963700635750000	      1.02372619853198540000	     -0.34266434445887356000	     19.32971381939698200000	      1.44153831299789910000	      0.60578885603155297000	    -10.20277576234829400000	      3.96148752042725460000	      0.00000000000000000171	     -0.00000000000000001175	    -13.64860093255351000000	      5.96770408305798570000	      5.56052852580552590000	    -44.27881523317222400000	    -26.76214931762515900000	      0.00000000000000000460	     -0.00000000000000001009	    -12.13966417425055500000	     -3.82159101794488400000	    -10.58369408492447400000	    -33.93041404302749000000	    -11.43248438635009700000	    -16.45149839734261800000	     92.62419313337189000000	     71.59837157638992300000	      0.00000000000000000712	     -0.00000000000000002548	     -3.16129270220318230000	    -24.59467643206570700000	      8.56997237353001220000	    109.70006249156670000000	     97.84507001641580400000	     -0.00000000000000000129	      0.00000000000000000414
